# xmcd
#
# Track frame offsets: 
#        151
#        29863
#        41355
#        53614
#        70737
#        83894
#        93519
#        106510
#        120706
#        134522
#        148178
#
# Disc length: 2112 seconds
#
# Revision: 0
# Processed by: cddbd v1.5.2PL0 Copyright (c) Steve Scherf et al.
# Submitted via: ExactAudioCopy v0.95a5
#
DISCID=96083e0b
DTITLE=David Allan Coe - Live At Billy Bob's Texas
DYEAR=2007
DGENRE=Country
TTITLE0=Heaven Only Knows
TTITLE1=Storms Never Last
TTITLE2=Ain't That The Way (Love's Supposed To Be)
TTITLE3=Talkin' To The Blues
TTITLE4=Wreckless
TTITLE5=Nothin' To Lose (Part 2)
TTITLE6=Lay My Money Down
TTITLE7=Will You Remember Me
TTITLE8=Take This Job And Shove It
TTITLE9=The Ride
TTITLE10=Follow Me
EXTD=
EXTT0=
EXTT1=
EXTT2=
EXTT3=
EXTT4=
EXTT5=
EXTT6=
EXTT7=
EXTT8=
EXTT9=
EXTT10=
PLAYORDER=
